<svg width="31" height="31" viewBox="0 0 31 31" fill="none" xmlns="http://www.w3.org/2000/svg">
<mask id="mask0_863_657" style="mask-type:alpha" maskUnits="userSpaceOnUse" x="0" y="0" width="31" height="31">
<rect width="31" height="31" fill="#D9D9D9"/>
</mask>
<g mask="url(#mask0_863_657)">
<path d="M15.5026 19.3747C16.579 19.3747 17.4939 18.9979 18.2474 18.2445C19.0009 17.491 19.3776 16.5761 19.3776 15.4997C19.3776 14.4233 19.0009 13.5084 18.2474 12.7549C17.4939 12.0014 16.579 11.6247 15.5026 11.6247C14.4262 11.6247 13.5113 12.0014 12.7578 12.7549C12.0043 13.5084 11.6276 14.4233 11.6276 15.4997C11.6276 16.5761 12.0043 17.491 12.7578 18.2445C13.5113 18.9979 14.4262 19.3747 15.5026 19.3747ZM15.5026 28.4163C13.7158 28.4163 12.0366 28.0773 10.4651 27.3992C8.89358 26.721 7.52656 25.8007 6.36406 24.6382C5.20156 23.4757 4.28125 22.1087 3.60313 20.5372C2.925 18.9656 2.58594 17.2865 2.58594 15.4997C2.58594 13.7129 2.925 12.0337 3.60313 10.4622C4.28125 8.89065 5.20156 7.52363 6.36406 6.36113C7.52656 5.19863 8.89358 4.27832 10.4651 3.6002C12.0366 2.92207 13.7158 2.58301 15.5026 2.58301C17.2894 2.58301 18.9686 2.92207 20.5401 3.6002C22.1116 4.27832 23.4786 5.19863 24.6411 6.36113C25.8036 7.52363 26.724 8.89065 27.4021 10.4622C28.0802 12.0337 28.4193 13.7129 28.4193 15.4997C28.4193 17.2865 28.0802 18.9656 27.4021 20.5372C26.724 22.1087 25.8036 23.4757 24.6411 24.6382C23.4786 25.8007 22.1116 26.721 20.5401 27.3992C18.9686 28.0773 17.2894 28.4163 15.5026 28.4163ZM15.5026 25.833C18.3873 25.833 20.8307 24.832 22.8328 22.8299C24.8349 20.8278 25.8359 18.3844 25.8359 15.4997C25.8359 12.615 24.8349 10.1716 22.8328 8.16947C20.8307 6.16738 18.3873 5.16634 15.5026 5.16634C12.6179 5.16634 10.1745 6.16738 8.1724 8.16947C6.17031 10.1716 5.16927 12.615 5.16927 15.4997C5.16927 18.3844 6.17031 20.8278 8.1724 22.8299C10.1745 24.832 12.6179 25.833 15.5026 25.833Z" fill="white"/>
</g>
</svg>
