<svg width="31" height="28" viewBox="0 0 31 28" fill="none" xmlns="http://www.w3.org/2000/svg">
<g clip-path="url(#clip0_1220_239)">
<path d="M16.3191 5.95395C16.0138 5.95395 15.7524 6.05913 15.535 6.26949C15.3176 6.47984 15.2089 6.73593 15.2089 7.03775V14.6928C15.2089 14.8575 15.2367 15.0107 15.2922 15.1524C15.3477 15.2942 15.431 15.4382 15.542 15.5846L18.9694 20.0568C19.2007 20.3495 19.4667 20.521 19.7672 20.5714C20.0679 20.6217 20.357 20.5508 20.6346 20.3587C20.8935 20.1849 21.0346 19.9494 21.0577 19.6522C21.0809 19.355 20.9861 19.0691 20.7734 18.7947L16.1526 12.635L17.4153 16.4762V7.03775C17.4153 6.73593 17.3089 6.47984 17.0962 6.26949C16.8834 6.05913 16.6244 5.95395 16.3191 5.95395ZM16.8464 27.9864C18.7798 27.9864 20.5999 27.6205 22.3067 26.8888C24.0134 26.1572 25.519 25.1466 26.8234 23.857C28.1277 22.5674 29.1499 21.0789 29.89 19.3915C30.63 17.7041 31 15.9047 31 13.9932C31 12.0817 30.63 10.2822 29.89 8.59482C29.1499 6.90741 28.1277 5.41893 26.8234 4.12935C25.519 2.83979 24.0134 1.82917 22.3067 1.0975C20.5999 0.365835 18.7798 0 16.8464 0C14.913 0 13.0929 0.365835 11.3861 1.0975C9.67934 1.82917 8.17378 2.8375 6.86942 4.1225C5.56507 5.40749 4.54286 6.89369 3.8028 8.58111C3.06274 10.2685 2.69271 12.068 2.69271 13.9794H5.05164C5.05164 12.3606 5.35461 10.847 5.96053 9.43853C6.56646 8.03006 7.41059 6.79537 8.49293 5.73445C9.57526 4.67354 10.8287 3.84355 12.2534 3.24449C13.678 2.64544 15.209 2.34591 16.8464 2.34591C18.4838 2.34591 20.0147 2.64544 21.4394 3.24449C22.864 3.84355 24.1151 4.67582 25.1929 5.74131C26.2706 6.80681 27.1147 8.04379 27.7252 9.45225C28.3358 10.8607 28.6411 12.3744 28.6411 13.9932C28.6411 15.612 28.3358 17.1279 27.7252 18.5409C27.1147 19.9539 26.2706 21.1932 25.1929 22.2587C24.1151 23.3242 22.864 24.1588 21.4394 24.7625C20.0147 25.3661 18.4838 25.6633 16.8464 25.6541C15.5235 25.645 14.27 25.4415 13.0859 25.0436C11.9018 24.6457 10.8172 24.0856 9.83198 23.3632C8.84677 22.6406 8.00264 21.7946 7.29958 20.8251C7.08681 20.5416 6.8301 20.361 6.52945 20.2833C6.22881 20.2055 5.93047 20.2535 5.63445 20.4273C5.35692 20.6011 5.18809 20.8526 5.12796 21.1818C5.06784 21.5111 5.15803 21.8266 5.39855 22.1285C6.27737 23.29 7.30884 24.312 8.49293 25.1946C9.67703 26.0772 10.9768 26.7631 12.3921 27.2524C13.8075 27.7417 15.2923 27.9864 16.8464 27.9864ZM0.985936 11.3454C0.652909 11.3454 0.403139 11.4117 0.236625 11.5444C0.0701112 11.677 -0.00852043 11.853 0.000730321 12.0725C0.00998108 12.292 0.102488 12.5298 0.278252 12.7859L3.38651 17.1484C3.61778 17.4686 3.88143 17.6263 4.17745 17.6217C4.47348 17.6172 4.7325 17.4595 4.95451 17.1484L8.06277 12.7722C8.23853 12.5161 8.32873 12.2806 8.33335 12.0657C8.33797 11.8508 8.25703 11.677 8.09052 11.5444C7.924 11.4117 7.67886 11.3454 7.35509 11.3454H0.985936Z" fill="#EA0B2A"/>
</g>
<defs>
<clipPath id="clip0_1220_239">
<rect width="31" height="28" fill="white"/>
</clipPath>
</defs>
</svg>
