<svg width="25" height="31" viewBox="0 0 25 31" fill="none" xmlns="http://www.w3.org/2000/svg">
<path d="M12.4926 21.1165C12.774 21.1165 13.0272 21.0181 13.3086 20.7367L18.0637 16.1504C18.2747 15.9394 18.3872 15.7143 18.3872 15.4048C18.3872 14.828 17.9512 14.42 17.3603 14.42C17.093 14.42 16.7975 14.5326 16.6006 14.7577L14.4763 17.0226L13.5196 18.0215L13.604 15.9253V1.08327C13.604 0.492442 13.0976 0 12.4926 0C11.8877 0 11.3672 0.492442 11.3672 1.08327V15.9253L11.4657 18.0215L10.509 17.0226L8.37062 14.7577C8.17368 14.5326 7.87824 14.42 7.5969 14.42C7.00602 14.42 6.58392 14.828 6.58392 15.4048C6.58392 15.7143 6.71058 15.9394 6.92162 16.1504L11.6767 20.7367C11.9581 21.0181 12.1972 21.1165 12.4926 21.1165ZM4.41745 30.3594H20.5538C23.5081 30.3594 24.9712 28.8963 24.9712 25.9982V11.4798C24.9712 8.58167 23.5081 7.11856 20.5538 7.11856H16.5021V9.38359H20.5256C21.9043 9.38359 22.7062 10.1433 22.7062 11.6064V25.8856C22.7062 27.3487 21.9043 28.0944 20.5256 28.0944H4.45965C3.05285 28.0944 2.26497 27.3487 2.26497 25.8856V11.6064C2.26497 10.1433 3.05285 9.38359 4.45965 9.38359H8.48316V7.11856H4.41745C1.49125 7.11856 0 8.58167 0 11.4798V25.9982C0 28.9103 1.49125 30.3594 4.41745 30.3594Z" fill="black"/>
</svg>
