<svg width="21" height="21" viewBox="0 0 21 21" fill="none" xmlns="http://www.w3.org/2000/svg">
<g clip-path="url(#clip0_2_14330)">
<path d="M10.8633 20.0879C11.5404 20.0879 12.1768 19.8535 12.7725 19.3848C13.3682 18.9161 13.8923 18.2585 14.3448 17.4121C14.7972 16.5658 15.152 15.5713 15.4092 14.4287C15.6664 13.2862 15.795 12.0411 15.795 10.6934C15.795 9.34571 15.668 8.09733 15.4141 6.94825C15.1602 5.79916 14.807 4.79981 14.3545 3.9502C13.902 3.10059 13.3779 2.44141 12.7823 1.97267C12.1865 1.50392 11.5469 1.26954 10.8633 1.26954C10.1797 1.26954 9.54007 1.50392 8.94436 1.97267C8.34866 2.44141 7.8262 3.10059 7.37698 3.9502C6.92776 4.79981 6.57457 5.79916 6.31741 6.94825C6.06025 8.09733 5.93167 9.34571 5.93167 10.6934C5.93167 12.0411 6.06025 13.2862 6.31741 14.4287C6.57457 15.5713 6.92939 16.5658 7.38186 17.4121C7.83434 18.2585 8.35843 18.9161 8.95413 19.3848C9.54983 19.8535 10.1862 20.0879 10.8633 20.0879ZM10.8633 2.45118C11.3386 2.45118 11.7943 2.6709 12.2305 3.11036C12.6667 3.54981 13.054 4.1504 13.3926 4.91212C13.7311 5.67384 13.998 6.55112 14.1934 7.54395C14.3887 8.53679 14.4864 9.58659 14.4864 10.6934C14.4864 11.7871 14.3887 12.8255 14.1934 13.8086C13.998 14.7917 13.7311 15.6657 13.3926 16.4307C13.054 17.1956 12.6667 17.7978 12.2305 18.2373C11.7943 18.6768 11.3386 18.8965 10.8633 18.8965C10.3881 18.8965 9.93232 18.6768 9.49612 18.2373C9.05992 17.7978 8.67255 17.1956 8.33401 16.4307C7.99547 15.6657 7.72855 14.7917 7.53323 13.8086C7.33792 12.8255 7.24026 11.7871 7.24026 10.6934C7.24026 9.58659 7.33792 8.53679 7.53323 7.54395C7.72855 6.55112 7.99547 5.67384 8.33401 4.91212C8.67255 4.1504 9.05992 3.54981 9.49612 3.11036C9.93232 2.6709 10.3881 2.45118 10.8633 2.45118ZM10.2285 1.40626V19.9024H11.5079V1.40626H10.2285ZM10.8633 14.3457C9.86071 14.3457 8.91019 14.4287 8.01175 14.5947C7.11331 14.7608 6.30439 14.9984 5.58499 15.3076C4.86559 15.6169 4.27803 15.9798 3.82229 16.3965L4.80862 17.207C5.23831 16.8685 5.75426 16.5804 6.35647 16.3428C6.95869 16.1051 7.63903 15.9261 8.39749 15.8057C9.15595 15.6852 9.97789 15.625 10.8633 15.625C11.7488 15.625 12.5707 15.6852 13.3292 15.8057C14.0876 15.9261 14.768 16.1051 15.3702 16.3428C15.9724 16.5804 16.4883 16.8685 16.918 17.207L17.9044 16.3965C17.4486 15.9798 16.8611 15.6169 16.1417 15.3076C15.4223 14.9984 14.6133 14.7608 13.7149 14.5947C12.8164 14.4287 11.8659 14.3457 10.8633 14.3457ZM19.877 10.0293H1.84964V11.3086H19.877V10.0293ZM10.8633 7.05079C11.8659 7.05079 12.8164 6.96778 13.7149 6.80177C14.6133 6.63575 15.4223 6.39812 16.1417 6.08888C16.8611 5.77963 17.4486 5.41667 17.9044 5.00001L16.918 4.18946C16.4883 4.52801 15.9724 4.81609 15.3702 5.05372C14.768 5.29135 14.0876 5.47039 13.3292 5.59083C12.5707 5.71127 11.7488 5.77149 10.8633 5.77149C9.97789 5.77149 9.15595 5.71127 8.39749 5.59083C7.63903 5.47039 6.95869 5.29135 6.35647 5.05372C5.75426 4.81609 5.23831 4.52801 4.80862 4.18946L3.82229 5.00001C4.27803 5.41667 4.86559 5.77963 5.58499 6.08888C6.30439 6.39812 7.11331 6.63575 8.01175 6.80177C8.91019 6.96778 9.86071 7.05079 10.8633 7.05079ZM10.8633 20.6348C12.224 20.6348 13.5049 20.3744 14.7061 19.8535C15.9073 19.3327 16.9668 18.6133 17.8848 17.6953C18.8028 16.7774 19.5222 15.7178 20.043 14.5166C20.5638 13.3155 20.8243 12.0345 20.8243 10.6738C20.8243 9.31316 20.5638 8.03223 20.043 6.83106C19.5222 5.62989 18.8028 4.57032 17.8848 3.65235C16.9668 2.73438 15.9056 2.01498 14.7012 1.49415C13.4968 0.973315 12.2142 0.712898 10.8535 0.712898C9.49287 0.712898 8.21195 0.973315 7.01077 1.49415C5.8096 2.01498 4.75166 2.73438 3.83694 3.65235C2.92223 4.57032 2.20446 5.62989 1.68362 6.83106C1.16279 8.03223 0.902374 9.31316 0.902374 10.6738C0.902374 12.0345 1.16279 13.3155 1.68362 14.5166C2.20446 15.7178 2.92386 16.7774 3.84182 17.6953C4.7598 18.6133 5.81937 19.3327 7.02053 19.8535C8.22171 20.3744 9.50264 20.6348 10.8633 20.6348ZM10.8633 19.3067C9.68493 19.3067 8.5749 19.0804 7.53323 18.6279C6.49157 18.1754 5.5736 17.5521 4.77932 16.7578C3.98506 15.9635 3.36169 15.0456 2.90921 14.0039C2.45673 12.9622 2.23049 11.8522 2.23049 10.6738C2.23049 9.49545 2.45673 8.38542 2.90921 7.34376C3.36169 6.30209 3.98343 5.38412 4.77444 4.58985C5.56546 3.79558 6.4818 3.17221 7.52346 2.71974C8.56513 2.26726 9.67516 2.04102 10.8535 2.04102C12.032 2.04102 13.142 2.26726 14.1836 2.71974C15.2253 3.17221 16.1449 3.79558 16.9424 4.58985C17.7399 5.38412 18.3649 6.30209 18.8174 7.34376C19.2699 8.38542 19.4962 9.49545 19.4962 10.6738C19.4962 11.8522 19.2699 12.9622 18.8174 14.0039C18.3649 15.0456 17.7415 15.9635 16.9473 16.7578C16.153 17.5521 15.235 18.1754 14.1934 18.6279C13.1517 19.0804 12.0417 19.3067 10.8633 19.3067Z" fill="#EA0B2A"/>
</g>
<defs>
<clipPath id="clip0_2_14330">
<rect width="19.9219" height="19.9316" fill="white" transform="translate(0.902374 0.712898)"/>
</clipPath>
</defs>
</svg>
