<svg width="18" height="18" viewBox="0 0 18 18" fill="none" xmlns="http://www.w3.org/2000/svg">
<path d="M0.350077 15.9352C-0.109914 16.3952 -0.123421 17.1798 0.350077 17.6533C0.810068 18.1268 1.59475 18.1133 2.06825 17.6533L8.99495 10.7131L15.9352 17.6533C16.3952 18.1133 17.1798 18.1268 17.6398 17.6533C18.1268 17.1798 18.1133 16.3952 17.6398 15.9352L10.7131 8.99495L17.6398 2.06825C18.1133 1.60826 18.1268 0.810068 17.6398 0.350077C17.1798 -0.123421 16.3952 -0.109914 15.9352 0.350077L8.99495 7.29035L2.06825 0.350077C1.59475 -0.109914 0.810068 -0.123421 0.350077 0.350077C-0.123421 0.810068 -0.109914 1.60826 0.350077 2.06825L7.27678 8.99495L0.350077 15.9352Z" fill="black"/>
</svg>
