<svg width="19" height="19" viewBox="0 0 19 19" fill="none" xmlns="http://www.w3.org/2000/svg">
<g clip-path="url(#clip0_2_12088)">
<path d="M3.50537 18.3787H15.3511C16.3732 18.3787 17.1398 18.1265 17.6509 17.6219C18.1619 17.1174 18.4175 16.3606 18.4175 15.3514V3.42762C18.4175 2.4185 18.1619 1.66166 17.6509 1.1571C17.1398 0.652547 16.3732 0.400269 15.3511 0.400269H3.50537C2.48323 0.400269 1.71663 0.652547 1.20557 1.1571C0.694499 1.66166 0.438965 2.4185 0.438965 3.42762V15.3514C0.438965 16.3606 0.694499 17.1174 1.20557 17.6219C1.71663 18.1265 2.48323 18.3787 3.50537 18.3787ZM3.5249 16.8065C3.03662 16.8065 2.66227 16.6779 2.40185 16.4207C2.14144 16.1636 2.01123 15.7811 2.01123 15.2733V3.50574C2.01123 2.99792 2.14144 2.61544 2.40185 2.35828C2.66227 2.10112 3.03662 1.97254 3.5249 1.97254H15.3316C15.8133 1.97254 16.186 2.10112 16.4497 2.35828C16.7133 2.61544 16.8452 2.99792 16.8452 3.50574V15.2733C16.8452 15.7811 16.7133 16.1636 16.4497 16.4207C16.186 16.6779 15.8133 16.8065 15.3316 16.8065H3.5249ZM12.4995 11.7869C12.7143 11.7869 12.8869 11.7137 13.0171 11.5672C13.1473 11.4208 13.2124 11.2336 13.2124 11.0057V6.40613C13.2124 6.11316 13.1391 5.90483 12.9927 5.78113C12.8462 5.65743 12.6493 5.59558 12.4019 5.59558H7.76319C7.53532 5.59558 7.35302 5.66068 7.2163 5.7909C7.07959 5.9211 7.01123 6.09363 7.01123 6.30847C7.01123 6.52983 7.08122 6.70561 7.22119 6.83582C7.36117 6.96602 7.54834 7.03113 7.78271 7.03113H9.56005L11.0054 6.87488L9.49169 8.2909L5.88819 11.8944C5.73193 12.0506 5.6538 12.2231 5.6538 12.4119C5.6538 12.6333 5.71891 12.8108 5.84912 12.9442C5.97933 13.0777 6.15185 13.1444 6.36669 13.1444C6.58806 13.1444 6.7736 13.0696 6.92334 12.9198L10.5269 9.31629L11.9234 7.82215L11.7769 9.33582V11.0252C11.7769 11.2596 11.8436 11.4452 11.9771 11.5819C12.1105 11.7186 12.2847 11.7869 12.4995 11.7869Z" fill="#ea0b2a" fill-opacity="0.85"/>
</g>
<defs>
<clipPath id="clip0_2_12088">
<rect width="17.9785" height="17.998" fill="white" transform="translate(0.438965 0.380737)"/>
</clipPath>
</defs>
</svg>
