<svg width="15" height="15" viewBox="0 0 15 15" fill="none" xmlns="http://www.w3.org/2000/svg">
<g clip-path="url(#clip0_2_12096)">
<path d="M14.6006 11.1815L14.5909 1.3573C14.5909 1.07735 14.5063 0.849488 14.337 0.673706C14.1677 0.497925 13.9366 0.410034 13.6436 0.410034H3.81943C3.54599 0.410034 3.32464 0.499553 3.15537 0.678589C2.9861 0.857625 2.90146 1.06433 2.90146 1.29871C2.90146 1.53308 2.99098 1.73653 3.17001 1.90906C3.34905 2.08158 3.5525 2.16785 3.78037 2.16785H7.1788L11.9444 2.0116L10.128 3.6034L0.450287 13.3006C0.267995 13.483 0.176849 13.6881 0.176849 13.9159C0.176849 14.0721 0.219167 14.2202 0.303802 14.3602C0.388438 14.5002 0.499115 14.6125 0.635833 14.6971C0.772552 14.7818 0.922292 14.8241 1.08505 14.8241C1.31943 14.8241 1.52451 14.7362 1.70029 14.5604L11.3975 4.87293L13.0088 3.04676L12.833 7.6073V11.2205C12.833 11.4484 12.9193 11.6535 13.0918 11.8358C13.2644 12.0181 13.4711 12.1092 13.712 12.1092C13.9464 12.1092 14.1531 12.0213 14.3321 11.8455C14.5111 11.6698 14.6006 11.4485 14.6006 11.1815Z" fill="#ea0b2a" fill-opacity="0.85"/>
</g>
<defs>
<clipPath id="clip0_2_12096">
<rect width="14.4238" height="14.4434" fill="white" transform="translate(0.176849 0.380737)"/>
</clipPath>
</defs>
</svg>
