<svg width="31" height="31" viewBox="0 0 31 31" fill="none" xmlns="http://www.w3.org/2000/svg">
<mask id="mask0_863_654" style="mask-type:alpha" maskUnits="userSpaceOnUse" x="0" y="0" width="31" height="31">
<rect width="31" height="31" fill="#D9D9D9"/>
</mask>
<g mask="url(#mask0_863_654)">
<path d="M13.5281 28.417C12.9253 28.417 12.3602 28.2878 11.8328 28.0295C11.3054 27.7712 10.8587 27.4052 10.4927 26.9316L3.45312 17.9868L4.06667 17.341C4.49722 16.8889 5.01389 16.6198 5.61667 16.5337C6.21944 16.4475 6.77917 16.5659 7.29583 16.8889L9.68542 18.342V7.75033C9.68542 7.38435 9.8092 7.07758 10.0568 6.83001C10.3043 6.58244 10.6111 6.45866 10.9771 6.45866C11.3431 6.45866 11.6552 6.58244 11.9135 6.83001C12.1719 7.07758 12.301 7.38435 12.301 7.75033V22.992L9.16875 21.0545L12.5271 25.3493C12.6562 25.5 12.8069 25.6184 12.9792 25.7045C13.1514 25.7906 13.3344 25.8337 13.5281 25.8337H20.6646C21.375 25.8337 21.9832 25.5807 22.4891 25.0748C22.995 24.5689 23.2479 23.9607 23.2479 23.2503V18.0837C23.2479 17.7177 23.1241 17.4109 22.8766 17.1633C22.629 16.9158 22.3222 16.792 21.9562 16.792H14.8844V14.2087H21.9562C23.0326 14.2087 23.9476 14.5854 24.701 15.3389C25.4545 16.0923 25.8313 17.0073 25.8313 18.0837V23.2503C25.8313 24.6712 25.3253 25.8875 24.3135 26.8993C23.3017 27.9111 22.0854 28.417 20.6646 28.417H13.5281ZM5.39062 10.9795C5.11076 10.5059 4.89549 9.9946 4.74479 9.44564C4.5941 8.89668 4.51875 8.33158 4.51875 7.75033C4.51875 5.96352 5.14844 4.44043 6.40781 3.18105C7.66719 1.92168 9.19028 1.29199 10.9771 1.29199C12.7639 1.29199 14.287 1.92168 15.5464 3.18105C16.8057 4.44043 17.4354 5.96352 17.4354 7.75033C17.4354 8.33158 17.3601 8.89668 17.2094 9.44564C17.0587 9.9946 16.8434 10.5059 16.5635 10.9795L14.3354 9.68783C14.5076 9.38644 14.6368 9.07967 14.7229 8.76751C14.809 8.45536 14.8521 8.1163 14.8521 7.75033C14.8521 6.67394 14.4753 5.75901 13.7219 5.00553C12.9684 4.25206 12.0535 3.87533 10.9771 3.87533C9.90069 3.87533 8.98576 4.25206 8.23229 5.00553C7.47882 5.75901 7.10208 6.67394 7.10208 7.75033C7.10208 8.1163 7.14514 8.45536 7.23125 8.76751C7.31736 9.07967 7.44653 9.38644 7.61875 9.68783L5.39062 10.9795Z" fill="white"/>
</g>
</svg>
